# xmcd
#
# Track frame offsets: 
#        150
#        14074
#        24459
#        39222
#        53118
#        63357
#
# Disc length: 1143 seconds
#
# Revision: 0
# Processed by: cddbd v1.5.1PL0 Copyright (c) Steve Scherf et al.
# Submitted via: ExactAudioCopy v0.95a5
#
DISCID=45047506
DTITLE=Emory Lester - Cruisin' The 8
DYEAR=2001
DGENRE=Bluegrass
TTITLE0=Mountain Air
TTITLE1=Paul Barfoot's Breakdown
TTITLE2=Salt Creek Revisited
TTITLE3=Steel Driver
TTITLE4=Billy In The Claw Ground
TTITLE5=Cruisin' The 8
EXTD=
EXTT0=
EXTT1=
EXTT2=
EXTT3=
EXTT4=
EXTT5=
PLAYORDER=
